<mxfile host="app.diagrams.net" agent="Mozilla/5.0 (Windows NT 10.0; Win64; x64) AppleWebKit/537.36 (KHTML, like Gecko) Chrome/135.0.0.0 Safari/537.36" version="26.2.5">
  <diagram id="C5RBs43oDa-KdzZeNtuy" name="Page-1">
    <mxGraphModel dx="835" dy="422" grid="1" gridSize="10" guides="1" tooltips="1" connect="1" arrows="1" fold="1" page="1" pageScale="1" pageWidth="827" pageHeight="1169" math="0" shadow="0">
      <root>
        <mxCell id="WIyWlLk6GJQsqaUBKTNV-0" />
        <mxCell id="WIyWlLk6GJQsqaUBKTNV-1" parent="WIyWlLk6GJQsqaUBKTNV-0" />
        <mxCell id="NG3q917oJ5hY5-0IZNpt-0" value="«REST API»&lt;br&gt;&lt;b&gt;System A&lt;/b&gt;&lt;br&gt;&lt;font style=&quot;font-size: 10px;&quot;&gt;&lt;i&gt;(Clean Architecture)&lt;/i&gt;&lt;/font&gt;" style="html=1;dropTarget=0;whiteSpace=wrap;" vertex="1" parent="WIyWlLk6GJQsqaUBKTNV-1">
          <mxGeometry x="80" y="440" width="180" height="90" as="geometry" />
        </mxCell>
        <mxCell id="NG3q917oJ5hY5-0IZNpt-1" value="" style="shape=module;jettyWidth=8;jettyHeight=4;" vertex="1" parent="NG3q917oJ5hY5-0IZNpt-0">
          <mxGeometry x="1" width="20" height="20" relative="1" as="geometry">
            <mxPoint x="-27" y="7" as="offset" />
          </mxGeometry>
        </mxCell>
        <mxCell id="NG3q917oJ5hY5-0IZNpt-4" value="«REST API»&lt;br&gt;&lt;b&gt;System B&lt;/b&gt;&lt;br&gt;&lt;font style=&quot;font-size: 10px;&quot;&gt;&lt;i&gt;(Clean Architecture)&lt;/i&gt;&lt;/font&gt;" style="html=1;dropTarget=0;whiteSpace=wrap;" vertex="1" parent="WIyWlLk6GJQsqaUBKTNV-1">
          <mxGeometry x="530" y="440" width="180" height="90" as="geometry" />
        </mxCell>
        <mxCell id="NG3q917oJ5hY5-0IZNpt-5" value="" style="shape=module;jettyWidth=8;jettyHeight=4;" vertex="1" parent="NG3q917oJ5hY5-0IZNpt-4">
          <mxGeometry x="1" width="20" height="20" relative="1" as="geometry">
            <mxPoint x="-27" y="7" as="offset" />
          </mxGeometry>
        </mxCell>
        <mxCell id="NG3q917oJ5hY5-0IZNpt-6" value="" style="shape=image;verticalLabelPosition=bottom;labelBackgroundColor=default;verticalAlign=top;aspect=fixed;imageAspect=0;image=https://www.svgrepo.com/show/303576/rabbitmq-logo.svg;" vertex="1" parent="WIyWlLk6GJQsqaUBKTNV-1">
          <mxGeometry x="360" y="440" width="84" height="84" as="geometry" />
        </mxCell>
        <mxCell id="NG3q917oJ5hY5-0IZNpt-9" value="" style="rounded=0;orthogonalLoop=1;jettySize=auto;html=1;endArrow=halfCircle;endFill=0;endSize=6;strokeWidth=1;sketch=0;fontSize=12;curved=1;" edge="1" parent="WIyWlLk6GJQsqaUBKTNV-1">
          <mxGeometry relative="1" as="geometry">
            <mxPoint x="530" y="479.82" as="sourcePoint" />
            <mxPoint x="509.9999999999999" y="479.82" as="targetPoint" />
          </mxGeometry>
        </mxCell>
        <mxCell id="NG3q917oJ5hY5-0IZNpt-10" value="" style="ellipse;whiteSpace=wrap;html=1;align=center;aspect=fixed;fillColor=none;strokeColor=none;resizable=0;perimeter=centerPerimeter;rotatable=0;allowArrows=0;points=[];outlineConnect=1;" vertex="1" parent="WIyWlLk6GJQsqaUBKTNV-1">
          <mxGeometry x="438" y="530" width="10" height="10" as="geometry" />
        </mxCell>
        <mxCell id="NG3q917oJ5hY5-0IZNpt-15" value="" style="shape=image;verticalLabelPosition=bottom;labelBackgroundColor=default;verticalAlign=top;aspect=fixed;imageAspect=0;image=https://stockbroker.pl/wp-content/uploads/2021/01/icon-envelope.png;" vertex="1" parent="WIyWlLk6GJQsqaUBKTNV-1">
          <mxGeometry x="310" y="455" width="20" height="20" as="geometry" />
        </mxCell>
        <mxCell id="NG3q917oJ5hY5-0IZNpt-16" value="" style="shape=image;verticalLabelPosition=bottom;labelBackgroundColor=default;verticalAlign=top;aspect=fixed;imageAspect=0;image=https://stockbroker.pl/wp-content/uploads/2021/01/icon-envelope.png;" vertex="1" parent="WIyWlLk6GJQsqaUBKTNV-1">
          <mxGeometry x="460" y="455" width="20" height="20" as="geometry" />
        </mxCell>
        <mxCell id="NG3q917oJ5hY5-0IZNpt-17" value="" style="endArrow=none;html=1;rounded=0;" edge="1" parent="WIyWlLk6GJQsqaUBKTNV-1">
          <mxGeometry width="50" height="50" relative="1" as="geometry">
            <mxPoint x="260" y="480" as="sourcePoint" />
            <mxPoint x="271" y="480" as="targetPoint" />
          </mxGeometry>
        </mxCell>
        <mxCell id="NG3q917oJ5hY5-0IZNpt-18" value="" style="ellipse;whiteSpace=wrap;html=1;aspect=fixed;" vertex="1" parent="WIyWlLk6GJQsqaUBKTNV-1">
          <mxGeometry x="270" y="475" width="10" height="10" as="geometry" />
        </mxCell>
        <mxCell id="NG3q917oJ5hY5-0IZNpt-20" value="" style="endArrow=classic;html=1;rounded=0;dashed=1;" edge="1" parent="WIyWlLk6GJQsqaUBKTNV-1">
          <mxGeometry width="50" height="50" relative="1" as="geometry">
            <mxPoint x="290" y="480" as="sourcePoint" />
            <mxPoint x="350" y="480" as="targetPoint" />
          </mxGeometry>
        </mxCell>
        <mxCell id="NG3q917oJ5hY5-0IZNpt-21" value="" style="endArrow=classic;html=1;rounded=0;dashed=1;" edge="1" parent="WIyWlLk6GJQsqaUBKTNV-1">
          <mxGeometry width="50" height="50" relative="1" as="geometry">
            <mxPoint x="444" y="479.74" as="sourcePoint" />
            <mxPoint x="510" y="480" as="targetPoint" />
          </mxGeometry>
        </mxCell>
        <mxCell id="NG3q917oJ5hY5-0IZNpt-22" value="&lt;font style=&quot;font-size: 8px;&quot;&gt;&lt;i style=&quot;&quot;&gt;&amp;lt;&amp;lt;user_exchange&amp;gt;&amp;gt;&lt;/i&gt;&lt;/font&gt;&lt;br&gt;&lt;b&gt;RabbitMQ&lt;/b&gt;" style="text;html=1;align=center;verticalAlign=middle;whiteSpace=wrap;rounded=0;" vertex="1" parent="WIyWlLk6GJQsqaUBKTNV-1">
          <mxGeometry x="372" y="390" width="60" height="30" as="geometry" />
        </mxCell>
        <mxCell id="NG3q917oJ5hY5-0IZNpt-23" value="" style="shape=datastore;whiteSpace=wrap;html=1;" vertex="1" parent="WIyWlLk6GJQsqaUBKTNV-1">
          <mxGeometry x="140" y="585" width="60" height="60" as="geometry" />
        </mxCell>
        <mxCell id="NG3q917oJ5hY5-0IZNpt-24" value="" style="shape=datastore;whiteSpace=wrap;html=1;" vertex="1" parent="WIyWlLk6GJQsqaUBKTNV-1">
          <mxGeometry x="591" y="585" width="60" height="60" as="geometry" />
        </mxCell>
        <mxCell id="NG3q917oJ5hY5-0IZNpt-25" value="" style="ellipse;whiteSpace=wrap;html=1;aspect=fixed;" vertex="1" parent="WIyWlLk6GJQsqaUBKTNV-1">
          <mxGeometry x="175" y="410" width="10" height="10" as="geometry" />
        </mxCell>
        <mxCell id="NG3q917oJ5hY5-0IZNpt-26" value="" style="endArrow=none;html=1;rounded=0;" edge="1" parent="WIyWlLk6GJQsqaUBKTNV-1">
          <mxGeometry width="50" height="50" relative="1" as="geometry">
            <mxPoint x="179.72" y="440" as="sourcePoint" />
            <mxPoint x="179.72" y="420" as="targetPoint" />
          </mxGeometry>
        </mxCell>
        <mxCell id="NG3q917oJ5hY5-0IZNpt-27" value="&lt;font style=&quot;font-size: 8px;&quot;&gt;https://localhost:6060&lt;br&gt;http://localhost:6000&lt;/font&gt;" style="text;html=1;align=center;verticalAlign=middle;whiteSpace=wrap;rounded=0;" vertex="1" parent="WIyWlLk6GJQsqaUBKTNV-1">
          <mxGeometry x="200" y="390" width="60" height="30" as="geometry" />
        </mxCell>
        <mxCell id="NG3q917oJ5hY5-0IZNpt-28" value="" style="ellipse;whiteSpace=wrap;html=1;aspect=fixed;" vertex="1" parent="WIyWlLk6GJQsqaUBKTNV-1">
          <mxGeometry x="616" y="410" width="10" height="10" as="geometry" />
        </mxCell>
        <mxCell id="NG3q917oJ5hY5-0IZNpt-29" value="" style="endArrow=none;html=1;rounded=0;" edge="1" parent="WIyWlLk6GJQsqaUBKTNV-1">
          <mxGeometry width="50" height="50" relative="1" as="geometry">
            <mxPoint x="620.72" y="440" as="sourcePoint" />
            <mxPoint x="620.72" y="420" as="targetPoint" />
          </mxGeometry>
        </mxCell>
        <mxCell id="NG3q917oJ5hY5-0IZNpt-30" value="&lt;font style=&quot;font-size: 8px;&quot;&gt;https://localhost:6061&lt;br&gt;http://localhost:6001&lt;/font&gt;" style="text;html=1;align=center;verticalAlign=middle;whiteSpace=wrap;rounded=0;" vertex="1" parent="WIyWlLk6GJQsqaUBKTNV-1">
          <mxGeometry x="640" y="390" width="60" height="30" as="geometry" />
        </mxCell>
        <mxCell id="NG3q917oJ5hY5-0IZNpt-31" value="&lt;font style=&quot;line-height: 70%;&quot;&gt;&lt;font style=&quot;line-height: 70%; font-size: 7px;&quot;&gt;&lt;i&gt;&amp;lt;&amp;lt;MSSQL&amp;gt;&amp;gt;&lt;/i&gt;&lt;/font&gt;&lt;br&gt;&lt;span style=&quot;line-height: 70%;&quot;&gt;&lt;b style=&quot;&quot;&gt;&lt;font style=&quot;font-size: 8px;&quot;&gt;SystemA_DB&lt;/font&gt;&lt;/b&gt;&lt;/span&gt;&lt;/font&gt;" style="text;html=1;align=center;verticalAlign=middle;whiteSpace=wrap;rounded=0;" vertex="1" parent="WIyWlLk6GJQsqaUBKTNV-1">
          <mxGeometry x="140" y="606" width="60" height="30" as="geometry" />
        </mxCell>
        <mxCell id="NG3q917oJ5hY5-0IZNpt-33" value="" style="rounded=0;whiteSpace=wrap;html=1;" vertex="1" parent="WIyWlLk6GJQsqaUBKTNV-1">
          <mxGeometry x="165" y="580" width="10" height="10" as="geometry" />
        </mxCell>
        <mxCell id="NG3q917oJ5hY5-0IZNpt-34" value="" style="rounded=0;whiteSpace=wrap;html=1;" vertex="1" parent="WIyWlLk6GJQsqaUBKTNV-1">
          <mxGeometry x="615" y="580" width="10" height="10" as="geometry" />
        </mxCell>
        <mxCell id="NG3q917oJ5hY5-0IZNpt-35" value="" style="endArrow=classic;html=1;rounded=0;entryX=0.5;entryY=0;entryDx=0;entryDy=0;" edge="1" parent="WIyWlLk6GJQsqaUBKTNV-1" target="NG3q917oJ5hY5-0IZNpt-33">
          <mxGeometry width="50" height="50" relative="1" as="geometry">
            <mxPoint x="169.77" y="530" as="sourcePoint" />
            <mxPoint x="169.77" y="570" as="targetPoint" />
          </mxGeometry>
        </mxCell>
        <mxCell id="NG3q917oJ5hY5-0IZNpt-36" value="" style="endArrow=classic;html=1;rounded=0;entryX=0.5;entryY=0;entryDx=0;entryDy=0;" edge="1" parent="WIyWlLk6GJQsqaUBKTNV-1">
          <mxGeometry width="50" height="50" relative="1" as="geometry">
            <mxPoint x="619.77" y="530" as="sourcePoint" />
            <mxPoint x="620" y="580" as="targetPoint" />
          </mxGeometry>
        </mxCell>
        <mxCell id="NG3q917oJ5hY5-0IZNpt-37" value="&lt;font style=&quot;font-size: 8px;&quot;&gt;http:localhost:1493&lt;/font&gt;" style="text;html=1;align=center;verticalAlign=middle;whiteSpace=wrap;rounded=0;" vertex="1" parent="WIyWlLk6GJQsqaUBKTNV-1">
          <mxGeometry x="185" y="560" width="60" height="30" as="geometry" />
        </mxCell>
        <mxCell id="NG3q917oJ5hY5-0IZNpt-38" value="&lt;font style=&quot;font-size: 8px;&quot;&gt;http:localhost:1494&lt;/font&gt;" style="text;html=1;align=center;verticalAlign=middle;whiteSpace=wrap;rounded=0;" vertex="1" parent="WIyWlLk6GJQsqaUBKTNV-1">
          <mxGeometry x="640" y="560" width="60" height="30" as="geometry" />
        </mxCell>
        <mxCell id="NG3q917oJ5hY5-0IZNpt-39" value="&lt;font style=&quot;line-height: 70%;&quot;&gt;&lt;font style=&quot;line-height: 70%; font-size: 7px;&quot;&gt;&lt;i&gt;&amp;lt;&amp;lt;MSSQL&amp;gt;&amp;gt;&lt;/i&gt;&lt;/font&gt;&lt;br&gt;&lt;span style=&quot;line-height: 70%;&quot;&gt;&lt;b style=&quot;&quot;&gt;&lt;font style=&quot;font-size: 8px;&quot;&gt;SystemB_DB&lt;/font&gt;&lt;/b&gt;&lt;/span&gt;&lt;/font&gt;" style="text;html=1;align=center;verticalAlign=middle;whiteSpace=wrap;rounded=0;" vertex="1" parent="WIyWlLk6GJQsqaUBKTNV-1">
          <mxGeometry x="590" y="606" width="60" height="30" as="geometry" />
        </mxCell>
      </root>
    </mxGraphModel>
  </diagram>
</mxfile>
